<?xml version="1.0" encoding="UTF-8"?>
<!-- AWS Architecture Icon: Amazon EKS, Q3 2026 icon package. -->
<svg width="80" height="80" viewBox="0 0 80 80" xmlns="http://www.w3.org/2000/svg">
  <rect width="80" height="80" fill="#ED7100"/>
  <path fill="#FFF" d="m46.842 32.199-6.829 7.921 7.428 8.664h-2.772L38 41v8h-2V32h2v7l6.181-6.801zM64 48.234l-8-4.801V32c0-.356-.188-.685-.496-.864l-11.5-6.71v-9.674L64 26.57zM65.509 25.139l-22-13a1 1 0 0 0-1.509.862v12c0 .355.189.684.496.864l11.5 6.71V44c0 .351.185.677.486.857l10 6a1 1 0 0 0 1.514-.857V26a1 1 0 0 0-.491-.861zM40.445 66.863 17 54.399V26.571l20-11.819v9.699l-10.537 6.705A1 1 0 0 0 26 32v17c0 .373.208.715.538.887l13.453 7a1 1 0 0 0 .921.001l13.052-6.744 8.032 4.82zM64.515 54.142l-10-6a1 1 0 0 0-.974-.03l-13.086 6.761L28 48.393V32.549l10.537-6.705A1 1 0 0 0 39 25V13a1 1 0 0 0-1.509-.861l-22 13A1 1 0 0 0 15 26v29c0 .369.204.709.53.883l24.454 13a1 1 0 0 0 .953-.008l23.547-13a1 1 0 0 0 .031-1.733z"/>
</svg>
