<?xml version="1.0" encoding="UTF-8"?>
<!-- AWS Architecture Icon: AWS Secrets Manager, Q3 2026 icon package. -->
<svg width="80" height="80" viewBox="0 0 80 80" xmlns="http://www.w3.org/2000/svg">
  <rect width="80" height="80" fill="#DD344C"/>
  <path fill="#FFF" d="M38.76 43.36a1.24 1.24 0 1 0 2.48 0 1.24 1.24 0 0 0-2.48 0zm-2 0a3.24 3.24 0 1 1 4.48 3.066V49h-2v-2.574a3.242 3.242 0 0 1-2.48-3.066zM49 38H31v13h18v-3h-3v-2h3v-3h-3v-2h3zm-15-2h12l.001-5c.001-2.616-2.857-4.998-5.997-5h-.003c-1.529 0-3.073.574-4.238 1.575C34.643 28.537 34 29.786 34 31zm14 .001L47.999 36H50c.553 0 1 .448 1 1v15c0 .552-.447 1-1 1H30c-.553 0-1-.448-1-1V37c0-.552.447-1 1-1h2v-5c.001-1.798.897-3.599 2.459-4.942C35.982 24.75 38.001 24 40.001 24h.003C44.265 24.002 48.001 27.273 48 31zM19.207 55.049l1.621-1.172C18.093 50.097 16.581 45.662 16.396 41H19v-2h-2.601c.199-4.634 1.709-9.043 4.429-12.802l-1.621-1.173C16.239 29.128 14.599 33.942 14.399 39H12v2h2.396c.186 5.086 1.828 9.926 4.811 14.049zM53.838 59.208C50.069 61.936 45.648 63.446 41 63.639V61h-2v2.639c-4.648-.192-9.07-1.702-12.841-4.431l-1.171 1.62C29.1 63.805 33.928 65.445 39 65.639V68h2v-2.361c5.072-.194 9.898-1.834 14.01-4.811zM26.159 20.866C29.93 18.138 34.352 16.628 39 16.436V19h2v-2.564c4.648.192 9.069 1.702 12.838 4.43l1.172-1.62C50.898 16.27 46.072 14.63 41 14.436V12h-2v2.436c-5.072.193-9.9 1.833-14.012 4.81zM65.599 39c-.2-5.058-1.84-9.872-4.809-13.975l-1.621 1.173C61.89 29.957 63.4 34.366 63.599 39H61v2h2.602c-.186 4.662-1.697 9.097-4.433 12.877l1.621 1.172C63.774 50.926 65.415 46.086 65.602 41H68v-2zM56.386 25.064l7.84-7.84-1.414-1.414-7.84 7.84zM23.612 55.01l-7.84 7.84 1.414 1.414 7.84-7.84zM28.666 27.253 13.825 12.413l-1.414 1.414 14.841 14.84zM54.193 52.78l13.393 13.393-1.414 1.414-13.393-13.393z"/>
</svg>
